<?xml version="1.0" encoding="utf-8"?>
<!DOCTYPE svg PUBLIC "-//W3C//DTD SVG 1.1//EN" "http://www.w3.org/Graphics/SVG/1.1/DTD/svg11.dtd">
<svg version="1.1" id="Layer_1" xmlns="http://www.w3.org/2000/svg" xmlns:xlink="http://www.w3.org/1999/xlink" x="0px" y="0px"
	 width="116px" height="55px" viewBox="0 0 116 55" enable-background="new 0 0 116 55" xml:space="preserve">
<g opacity="0.5">
	<g>
		<path fill="#484D4F" d="M45,1H9c-4.951,0-9,4.05-9,9v36c0,4.95,4.049,9,9,9h36c4.949,0,9-4.05,9-9V10C54,5.05,49.949,1,45,1z
			 M47.25,43.75c0,2.475-2.025,4.5-4.5,4.5h-31.5c-2.475,0-4.5-2.025-4.5-4.5v-31.5c0-2.476,2.025-4.5,4.5-4.5h31.5
			c2.475,0,4.5,2.024,4.5,4.5V43.75z"/>
		<g>
			<g>
				<g>
					<path fill="#484D4F" d="M25.312,15.344v5.906h-5.906v13.5h5.906v5.906H13.5V15.344H25.312z"/>
				</g>
				<g>
					<path fill="#484D4F" d="M40.5,15.344v25.313H28.688V34.75h5.906v-13.5h-5.906v-5.906H40.5z"/>
				</g>
			</g>
		</g>
	</g>
</g>
<g opacity="0.5">
	<g>
		<path fill="#484D4F" d="M71.768,3.734c1.596,0,2.897,0.546,3.947,1.428l-1.47,2.478c-0.672-0.462-1.429-0.798-2.353-0.798
			c-1.974,0-3.232,1.554-3.232,4.031c0,2.688,1.176,4.115,3.527,4.115c0.881,0,1.638-0.504,2.226-0.966l1.554,2.436
			c-1.092,1.092-2.646,1.638-4.115,1.638c-3.904,0-6.887-2.436-6.887-7.223C64.965,6.38,67.988,3.734,71.768,3.734z"/>
		<path fill="#484D4F" d="M76.725,10.873c0-4.493,2.688-7.139,6.467-7.139c3.779,0,6.468,2.667,6.468,7.139
			c0,4.493-2.688,7.223-6.468,7.223C79.413,18.096,76.725,15.366,76.725,10.873z M85.963,10.873c0-2.478-1.134-4.031-2.771-4.031
			c-1.637,0-2.771,1.554-2.771,4.031s1.134,4.115,2.771,4.115C84.829,14.988,85.963,13.351,85.963,10.873z"/>
		<path fill="#484D4F" d="M92.266,3.986h4.24c4.157,0,7.014,2.058,7.014,6.887s-2.855,6.971-6.804,6.971h-4.45V3.986z
			 M96.296,14.946c1.974,0,3.527-0.882,3.527-4.073s-1.554-3.989-3.527-3.989h-0.42v8.062H96.296z"/>
		<path fill="#484D4F" d="M106.124,3.986h8.985V7.01h-5.375v2.226h4.619v3.023h-4.619v2.562h5.586v3.023h-9.196V3.986z"/>
		<path fill="#484D4F" d="M68.156,25.01h-3.653v-3.023h10.918v3.023h-3.653v10.834h-3.61L68.156,25.01L68.156,25.01z"/>
		<path fill="#484D4F" d="M77.564,21.986h3.61v5.165h4.367v-5.165h3.61v13.857h-3.61V30.3h-4.367v5.543h-3.61V21.986z"/>
		<path fill="#484D4F" d="M92.35,21.986h8.985v3.023H95.96v2.226h4.619v3.023H95.96v2.563h5.585v3.022H92.35V21.986z"/>
		<path fill="#484D4F" d="M64.167,39.986h3.694l0.757,6.173l0.462,4.282h0.084l0.756-4.282l1.303-6.173h3.022l1.302,6.173
			l0.756,4.282h0.084l0.463-4.282l0.756-6.173h3.442l-2.269,13.857h-4.576l-1.135-5.627l-0.42-2.98h-0.084l-0.42,2.98l-1.092,5.627
			h-4.492L64.167,39.986z"/>
		<path fill="#484D4F" d="M82.855,39.986h8.986v3.022h-5.375v2.226h4.619v3.023h-4.619v2.563h5.585v3.022h-9.196V39.986z"/>
		<path fill="#484D4F" d="M94.784,39.986h5.039c2.854,0,5.165,0.882,5.165,3.568c0,1.176-0.631,2.395-2.059,2.897v0.084
			c1.807,0.462,2.688,1.554,2.688,3.274c0,2.813-2.437,4.031-5.375,4.031h-5.459V39.986z M99.57,45.486
			c1.345,0,1.891-0.588,1.891-1.428s-0.546-1.302-1.891-1.302h-1.176v2.729H99.57L99.57,45.486z M99.991,51.072
			c1.428,0,2.1-0.588,2.1-1.596c0-1.009-0.672-1.471-2.1-1.471h-1.597v3.064h1.597V51.072z"/>
	</g>
</g>
<g>
	<g>
		<path fill="#1C2021" d="M45,0H9C4.049,0,0,4.05,0,9v36c0,4.95,4.049,9,9,9h36c4.949,0,9-4.05,9-9V9C54,4.05,49.949,0,45,0z
			 M47.25,42.75c0,2.475-2.025,4.5-4.5,4.5h-31.5c-2.475,0-4.5-2.025-4.5-4.5v-31.5c0-2.476,2.025-4.5,4.5-4.5h31.5
			c2.475,0,4.5,2.024,4.5,4.5V42.75z"/>
		<g>
			<g>
				<g>
					<path fill="#1C2021" d="M25.312,14.344v5.906h-5.906v13.5h5.906v5.906H13.5V14.344H25.312z"/>
				</g>
				<g>
					<path fill="#1C2021" d="M40.5,14.344v25.313H28.688V33.75h5.906v-13.5h-5.906v-5.906H40.5z"/>
				</g>
			</g>
		</g>
	</g>
</g>
<g>
	<g>
		<path fill="#1C2021" d="M71.768,2.734c1.596,0,2.897,0.546,3.947,1.428l-1.47,2.478c-0.672-0.462-1.429-0.798-2.353-0.798
			c-1.974,0-3.232,1.554-3.232,4.031c0,2.688,1.176,4.115,3.527,4.115c0.881,0,1.638-0.504,2.226-0.966l1.554,2.436
			c-1.092,1.092-2.646,1.638-4.115,1.638c-3.904,0-6.887-2.436-6.887-7.223C64.965,5.38,67.988,2.734,71.768,2.734z"/>
		<path fill="#1C2021" d="M76.725,9.873c0-4.493,2.688-7.139,6.467-7.139c3.779,0,6.468,2.667,6.468,7.139
			c0,4.493-2.688,7.223-6.468,7.223C79.413,17.096,76.725,14.366,76.725,9.873z M85.963,9.873c0-2.478-1.134-4.031-2.771-4.031
			c-1.637,0-2.771,1.554-2.771,4.031s1.135,4.115,2.771,4.115S85.963,12.351,85.963,9.873z"/>
		<path fill="#1C2021" d="M92.266,2.986h4.24c4.157,0,7.014,2.058,7.014,6.887s-2.855,6.971-6.804,6.971h-4.45V2.986z
			 M96.296,13.946c1.974,0,3.527-0.882,3.527-4.073s-1.554-3.989-3.527-3.989h-0.42v8.062H96.296z"/>
		<path fill="#1C2021" d="M106.124,2.986h8.985V6.01h-5.375v2.226h4.619v3.023h-4.619v2.562h5.586v3.023h-9.196V2.986z"/>
		<path fill="#1C2021" d="M68.156,24.01h-3.653v-3.023h10.918v3.023h-3.653v10.834h-3.61L68.156,24.01L68.156,24.01z"/>
		<path fill="#1C2021" d="M77.564,20.986h3.61v5.165h4.367v-5.165h3.61v13.857h-3.61V29.3h-4.367v5.543h-3.61V20.986z"/>
		<path fill="#1C2021" d="M92.35,20.986h8.985v3.023H95.96v2.226h4.619v3.023H95.96v2.563h5.585v3.022H92.35V20.986z"/>
		<path fill="#1C2021" d="M64.167,38.986h3.694l0.757,6.173l0.462,4.282h0.084l0.756-4.282l1.303-6.173h3.022l1.302,6.173
			l0.756,4.282h0.084l0.463-4.282l0.756-6.173h3.442l-2.269,13.857h-4.576l-1.135-5.627l-0.42-2.98h-0.084l-0.42,2.98l-1.092,5.627
			h-4.492L64.167,38.986z"/>
		<path fill="#1C2021" d="M82.855,38.986h8.986v3.022h-5.375v2.226h4.619v3.023h-4.619v2.563h5.585v3.022h-9.196V38.986z"/>
		<path fill="#1C2021" d="M94.784,38.986h5.039c2.854,0,5.165,0.882,5.165,3.568c0,1.176-0.631,2.395-2.059,2.897v0.084
			c1.807,0.462,2.688,1.554,2.688,3.274c0,2.813-2.437,4.031-5.375,4.031h-5.459V38.986z M99.57,44.486
			c1.345,0,1.891-0.588,1.891-1.428s-0.546-1.302-1.891-1.302h-1.176v2.729H99.57L99.57,44.486z M99.991,50.072
			c1.428,0,2.1-0.588,2.1-1.596c0-1.009-0.672-1.471-2.1-1.471h-1.597v3.064h1.597V50.072z"/>
	</g>
</g>
</svg>
